<?xml version="1.0" encoding="utf-8"?>
<!-- Generator: Adobe Illustrator 22.1.0, SVG Export Plug-In . SVG Version: 6.00 Build 0)  -->
<svg version="1.1" id="Calque_1" xmlns="http://www.w3.org/2000/svg"  x="0px" y="0px"
	 viewBox="0 0 500 500" style="enable-background:new 0 0 500 500;" xml:space="preserve">
<style type="text/css">
	.st0{fill:#373F44;}
	.st1{opacity:0.5;fill:url(#SVGID_1_);}
	.st2{fill:#C3006B;}
	.st3{fill:#ABCC59;}
	.st4{fill:#333333;}
	.st5{fill:#FFFFFF;}
</style>
<g>
	<g>
		<g>
			<path d="M372.1,243.7c-11-8.5-23.1-18.8-27-24.9c-3.9-6.1-18.8-14.4-27.7-15c4.4-10,0.6-22.2-0.6-16.1
				c-1.1,6.1-7.8,11.6-12.2,14.4c0,0-18.3,31.4-46.5,37.1c-33.5,0.5-185.3-6.3-210.4,13.1c-7.9,15.2-21.5,81.6-9.4,128.7
				c0-27.7,3.1-55.5,12-75.4C49,327.6,59.8,397.8,76.4,436h9.9c0.1-20.7,2.2-48.4,6.8-56.5c18.8,2.6,31.4-5.2,39.3-19.4
				c16.7,3.1,68.6,1,89.5-5.2c5.3,10.3,8.7,53.4,6.6,81.1h10.3c22-35,61-110.3,61-150.7c11.5-23,49.2-32.6,64.4-27.2L372.1,243.7z"
				/>
		</g>
	</g>
	<g>
		<path d="M38.5,240.4c0.1,0,0.1-0.1,0.2-0.1c0.6-24.8,4-48.9,11.9-66.7c-0.7,10.9,1.7,33.7,6.2,58.6c14.4-3.9,38.3-7,80.7-8.2
			c3-21.4,8-41.2,12.8-50.6c1-1.9,2.4-3.7,4.2-5c10.9-8.4,35.9-16.9,138.7-16.9c2.7,0,5.3,0,7.9,0c12.5-21.8,48.7-30.7,63.4-25.5
			l7.8-14.4c-11-8.5-23.1-18.8-27-24.9c-3.9-6.1-18.8-14.4-27.7-15c4.4-10,0.6-22.2-0.6-16.1c-1.1,6.1-7.8,11.6-12.2,14.4
			c0,0-18.3,31.4-46.5,37.1c-33.5,0.5-185.3-6.3-210.4,13.1c-7.5,14.4-20.1,75.2-11,121.6C37.5,241.3,38,240.9,38.5,240.4z"/>
	</g>
	<g>
		<path d="M478.1,163.6c-0.2-0.2-0.4-0.4-0.7-0.5c-1.2-1-2.5-2.1-3.6-3.1c-0.7-0.6-1.4-1.2-2-1.8c-4.8-4.4-8.8-8.4-10.7-11.4
			c-1.9-2.9-6.3-6.4-11.4-9.3c-0.4-0.2-0.7-0.4-1.1-0.6c-0.5-0.3-1-0.5-1.5-0.8c0,0,0,0,0,0c-0.7-0.4-1.5-0.7-2.2-1
			c-0.6-0.3-1.2-0.5-1.8-0.8c-0.3-0.1-0.5-0.2-0.8-0.3c-0.2-0.1-0.5-0.2-0.7-0.3c-0.6-0.2-1.2-0.4-1.7-0.6c0,0,0,0,0,0
			c-2.3-0.8-4.6-1.3-6.5-1.4l0,0l0,0c0,0,0,0,0,0c0.2-0.4,0.4-0.9,0.5-1.4c0-0.1,0.1-0.2,0.1-0.3c0.2-0.4,0.3-0.9,0.4-1.3
			c0-0.1,0-0.2,0.1-0.3c0.1-0.4,0.2-0.9,0.3-1.3c0-0.1,0-0.1,0-0.2c0.1-0.5,0.2-0.9,0.2-1.4c0-0.1,0-0.2,0-0.3
			c0.1-0.4,0.1-0.9,0.2-1.3c0-0.1,0-0.1,0-0.2c0-0.4,0.1-0.8,0.1-1.2c0-0.1,0-0.1,0-0.2c0-0.4,0-0.8,0-1.2c0-0.1,0-0.2,0-0.2
			c0-0.4,0-0.8,0-1.2c0,0,0,0,0,0c0-0.4-0.1-0.7-0.1-1.1c0-0.1,0-0.1,0-0.2c0-0.3-0.1-0.7-0.1-1c0-0.1,0-0.1,0-0.2
			c0-0.3-0.1-0.6-0.2-0.8c0,0,0-0.1,0-0.1c-0.1-0.3-0.1-0.5-0.2-0.7c0,0,0-0.1,0-0.1c-0.1-0.2-0.1-0.4-0.2-0.6c0,0,0,0,0-0.1
			c-0.1-0.2-0.1-0.3-0.2-0.4c0,0,0,0,0-0.1c-0.1-0.1-0.2-0.2-0.2-0.3c0,0,0,0-0.1,0c-0.1-0.1-0.2-0.1-0.2-0.1c0,0-0.1,0-0.1,0
			c0,0,0,0,0,0c0,0-0.1,0-0.1,0.1c0,0,0,0,0,0c0,0.1-0.1,0.1-0.1,0.2c0,0,0,0,0,0c0,0.1-0.1,0.2-0.1,0.3c0,0,0,0.1,0,0.1
			c0,0.1-0.1,0.2-0.1,0.3c0,0,0,0.1,0,0.1c0,0.1-0.1,0.3-0.1,0.5c0,0,0,0,0,0c-0.8,4.2-4.1,8.1-7.6,11.1c-1.6,1.3-3.2,2.5-4.6,3.3
			c0,0-7.1,12.3-19.4,22.9c-0.6,0.5-1.2,1.1-1.9,1.6c-7,5.7-15.5,10.7-25.3,12.7c-0.5,0-1,0-1.5,0c-0.1,0-0.3,0-0.4,0
			c-0.5,0-1,0-1.5,0c-0.1,0-0.2,0-0.4,0c-0.2,0-0.5,0-0.7,0c-0.2,0-0.4,0-0.7,0c-0.2,0-0.4,0-0.5,0c-0.6,0-1.2,0-1.9,0
			c-0.1,0-0.3,0-0.4,0c-0.5,0-1.1,0-1.6,0c-0.2,0-0.5,0-0.7,0c-0.5,0-1.1,0-1.6,0c-0.2,0-0.3,0-0.5,0c-0.7,0-1.5,0-2.2,0
			c-0.2,0-0.5,0-0.7,0c-0.6,0-1.2,0-1.8,0c-0.3,0-0.5,0-0.8,0c-0.8,0-1.6,0-2.4,0c-0.2,0-0.4,0-0.5,0c-0.7,0-1.4,0-2.1,0
			c-0.3,0-0.6,0-1,0c-3.1,0-6.4-0.1-9.8-0.1c-0.3,0-0.7,0-1,0c-0.8,0-1.7,0-2.5,0c-0.6,0-1.3,0-1.9,0c-0.5,0-1,0-1.5,0
			c-0.6,0-1.2,0-1.8,0c-0.4,0-0.9,0-1.3,0c-1,0-2,0-3,0c-0.3,0-0.7,0-1,0c-0.8,0-1.5,0-2.3,0c-0.4,0-0.8,0-1.2,0c-0.9,0-1.7,0-2.6,0
			c-0.3,0-0.6,0-0.9,0c-1.1,0-2.1,0-3.2,0c-0.4,0-0.8,0-1.2,0c-0.8,0-1.6,0-2.4,0c-0.4,0-0.8,0-1.2,0c-1.1,0-2.2,0-3.4,0
			c-0.3,0-0.6,0-0.9,0c-0.9,0-1.8,0-2.8,0c-0.4,0-0.8,0-1.1,0c-1,0-2.1,0-3.2,0c-0.2,0-0.3,0-0.5,0c-1.2,0-2.5,0-3.7,0
			c-0.3,0-0.6,0-0.9,0c-1.1,0-2.2,0-3.3,0c-0.1,0-0.3,0-0.4,0c-1.2,0-2.5,0-3.7,0c-0.2,0-0.4,0-0.7,0c-1.3,0-2.5,0-3.8,0
			c-0.1,0-0.2,0-0.3,0c-1.3,0-2.5,0-3.8,0c-0.1,0-0.2,0-0.4,0c-1.3,0-2.5,0-3.8,0c-0.2,0-0.4,0-0.6,0c-1.3,0-2.6,0-3.9,0
			c-0.1,0-0.2,0-0.3,0c-1.3,0-2.6,0-3.9,0.1c-0.1,0-0.2,0-0.3,0c-1.3,0-2.6,0-3.9,0.1c-0.2,0-0.3,0-0.5,0c-1.3,0-2.6,0.1-4,0.1
			c0,0-0.1,0-0.1,0c-1.3,0-2.6,0.1-4,0.1c-0.1,0-0.2,0-0.3,0c-1.3,0-2.6,0.1-3.9,0.1c-0.1,0-0.3,0-0.4,0c-1.3,0-2.6,0.1-3.9,0.1
			c0,0,0,0,0,0c-1.3,0-2.7,0.1-4,0.2c-0.1,0-0.1,0-0.2,0c-1.3,0.1-2.6,0.1-3.8,0.2c-0.1,0-0.3,0-0.4,0c-2.6,0.1-5.2,0.3-7.7,0.4
			c-0.1,0-0.1,0-0.2,0c-1.2,0.1-2.5,0.1-3.7,0.2c-0.1,0-0.3,0-0.4,0c-2.5,0.2-4.9,0.3-7.3,0.5c-0.1,0-0.1,0-0.2,0
			c-1.2,0.1-2.3,0.2-3.5,0.3c-0.1,0-0.3,0-0.4,0c-2.3,0.2-4.6,0.4-6.8,0.6c-0.1,0-0.2,0-0.3,0c-1.1,0.1-2.1,0.2-3.2,0.3
			c-0.1,0-0.3,0-0.4,0c-2.1,0.2-4.2,0.5-6.3,0.8c-0.1,0-0.2,0-0.3,0c-1,0.1-1.9,0.3-2.9,0.4c-0.1,0-0.3,0-0.4,0.1
			c-1.9,0.3-3.8,0.6-5.6,0.9c-0.1,0-0.2,0-0.3,0.1c-0.9,0.2-1.7,0.3-2.5,0.5c-0.1,0-0.3,0.1-0.4,0.1c-0.8,0.2-1.7,0.3-2.5,0.5
			c0,0,0,0,0,0c-0.8,0.2-1.6,0.4-2.3,0.6c-0.1,0-0.2,0.1-0.3,0.1c-0.7,0.2-1.4,0.4-2.1,0.6c-0.1,0-0.2,0.1-0.3,0.1
			c-0.7,0.2-1.4,0.4-2.1,0.6c0,0,0,0,0,0c-0.7,0.2-1.3,0.4-1.9,0.6c-0.1,0-0.2,0.1-0.3,0.1c-0.6,0.2-1.2,0.4-1.7,0.7
			c-0.1,0-0.2,0.1-0.3,0.1c-0.6,0.2-1.1,0.5-1.6,0.7c0,0,0,0,0,0c-0.5,0.2-1,0.5-1.5,0.7c-0.1,0-0.2,0.1-0.3,0.1
			c-0.4,0.2-0.9,0.5-1.3,0.7c-0.1,0-0.1,0.1-0.2,0.1c-0.4,0.3-0.8,0.5-1.1,0.8c-0.1,0.2-0.2,0.5-0.4,0.7c0,0.1-0.1,0.1-0.1,0.2
			c-0.1,0.2-0.2,0.4-0.3,0.6c0,0.1-0.1,0.2-0.1,0.3c-0.1,0.2-0.2,0.4-0.2,0.5c0,0.1-0.1,0.2-0.1,0.3c-0.1,0.2-0.2,0.4-0.2,0.6
			c0,0.1-0.1,0.2-0.1,0.4c-0.1,0.2-0.2,0.4-0.2,0.6c0,0.1-0.1,0.2-0.1,0.4c-0.1,0.2-0.2,0.5-0.3,0.8c0,0.1-0.1,0.2-0.1,0.3
			c-0.3,0.7-0.5,1.5-0.8,2.3c0,0.1-0.1,0.2-0.1,0.4c-0.1,0.3-0.2,0.6-0.3,0.9c0,0.1-0.1,0.3-0.1,0.4c-0.1,0.3-0.2,0.5-0.3,0.8
			c0,0.2-0.1,0.3-0.1,0.5c-0.1,0.3-0.2,0.6-0.2,0.8c-0.1,0.2-0.1,0.3-0.2,0.5c-0.1,0.3-0.2,0.6-0.3,0.9c0,0.2-0.1,0.3-0.1,0.5
			c-0.1,0.3-0.2,0.6-0.3,1c0,0.2-0.1,0.3-0.1,0.5c-0.1,0.5-0.3,1-0.4,1.5c0,0.1,0,0.1,0,0.2c-0.1,0.4-0.2,0.9-0.3,1.3
			c0,0.2-0.1,0.4-0.1,0.6c-0.1,0.3-0.2,0.7-0.2,1c-0.1,0.2-0.1,0.4-0.2,0.7c-0.1,0.3-0.2,0.6-0.2,1c-0.1,0.2-0.1,0.5-0.2,0.7
			c-0.1,0.3-0.1,0.6-0.2,1c-0.1,0.2-0.1,0.5-0.2,0.7c-0.1,0.3-0.1,0.7-0.2,1c-0.1,0.3-0.1,0.5-0.2,0.8c-0.1,0.3-0.1,0.7-0.2,1.1
			c0,0.2-0.1,0.5-0.1,0.7c-0.1,0.6-0.2,1.2-0.4,1.8c0,0.2-0.1,0.3-0.1,0.5c-0.1,0.5-0.2,0.9-0.3,1.4c-0.1,0.3-0.1,0.5-0.2,0.8
			c-0.1,0.4-0.1,0.7-0.2,1.1c-0.1,0.3-0.1,0.6-0.2,0.9c-0.1,0.3-0.1,0.7-0.2,1c-0.1,0.3-0.1,0.6-0.2,0.9c-0.1,0.4-0.1,0.7-0.2,1.1
			c-0.1,0.3-0.1,0.6-0.2,0.9c-0.1,0.4-0.1,0.7-0.2,1.1c0,0.3-0.1,0.6-0.1,0.9c-0.1,0.4-0.1,0.8-0.2,1.2c0,0.3-0.1,0.6-0.1,0.8
			c-0.1,0.6-0.2,1.3-0.3,1.9c0,0,0,0,0,0.1c7.6-0.1,15.8-0.2,24.5-0.2c19,0,37.1,0.3,51.7,0.5c10,0.2,18.6,0.3,24.7,0.3
			c1,0,1.9,0,2.7,0c17-4.2,31.2-22.8,35.3-29.7c1.2-2.1,2.9-3.9,5-5.2c2.8-1.7,4.9-3.9,5.5-4.9c1.9-9.3,9.1-13.4,15.5-13.4
			c5.3,0,10.2,2.7,13.1,7.3c2.4,3.7,3.6,9.1,3.7,14.8c2.3,1,4.3,2,5.8,2.9c5.7,3.1,13.3,8.2,17.5,14.7c1.5,2.4,9,10,23.5,21.1
			c5.8,4.5,7.6,12.5,4.1,19l-7.8,14.4c-2.7,5-7.8,7.9-13.2,7.9c-1.7,0-3.4-0.3-5-0.9c-0.3-0.1-1.8-0.6-5.2-0.6
			c-12.3,0-28.8,6-37.1,15.2c0.1,0,0.1,0,0.2,0c0.7-0.1,1.4-0.2,2.1-0.3c0.3,0,0.6-0.1,0.9-0.1c0.7-0.1,1.4-0.2,2.1-0.3
			c0.3,0,0.6-0.1,0.9-0.1c0.7-0.1,1.3-0.2,2-0.3c0.3,0,0.6-0.1,0.9-0.1c0.6-0.1,1.3-0.2,1.9-0.3c0.3-0.1,0.6-0.1,0.8-0.1
			c0.6-0.1,1.2-0.2,1.8-0.3c0.3-0.1,0.5-0.1,0.8-0.2c0.6-0.1,1.1-0.2,1.7-0.4c0.3-0.1,0.5-0.1,0.8-0.2c0.6-0.1,1.1-0.3,1.6-0.4
			c0.2-0.1,0.4-0.1,0.7-0.2c0.7-0.2,1.4-0.4,2.1-0.6c2,3.8,3.7,12.2,5,22.6c0,0.2,0,0.4,0.1,0.6c0.2,1.7,0.4,3.4,0.6,5.2
			c0.2,1.9,0.4,3.8,0.5,5.7c0.4,4.9,0.7,9.9,0.9,15c0.4,11.2,0.4,22.6-0.4,32.1h10.3c0.5-0.8,1-1.5,1.4-2.3c0.4-0.7,0.9-1.5,1.4-2.2
			C380,322.8,416,252,416,213.3c0.3-0.7,0.7-1.3,1.1-2c0.1-0.2,0.2-0.4,0.4-0.6c0.3-0.4,0.5-0.9,0.8-1.3c0.1-0.2,0.3-0.4,0.5-0.7
			c0.3-0.4,0.6-0.8,0.9-1.2c0.2-0.2,0.3-0.4,0.5-0.6c0.4-0.4,0.7-0.9,1.1-1.3c0.1-0.1,0.2-0.3,0.4-0.4c0.5-0.6,1-1.1,1.5-1.7
			c0.1-0.1,0.3-0.3,0.4-0.4c0.4-0.4,0.8-0.8,1.2-1.2c0.2-0.2,0.4-0.4,0.6-0.5c0.4-0.3,0.8-0.7,1.1-1c0.2-0.2,0.4-0.4,0.7-0.5
			c0.4-0.3,0.8-0.7,1.2-1c0.2-0.2,0.4-0.3,0.6-0.5c0.6-0.5,1.2-0.9,1.9-1.3c0,0,0.1,0,0.1-0.1c0.6-0.4,1.3-0.8,1.9-1.2
			c0.2-0.1,0.4-0.3,0.7-0.4c0.5-0.3,0.9-0.6,1.4-0.8c0.3-0.1,0.5-0.3,0.8-0.4c0.4-0.3,0.9-0.5,1.4-0.7c0.3-0.1,0.5-0.3,0.8-0.4
			c0.5-0.3,1-0.5,1.6-0.8c0.2-0.1,0.4-0.2,0.5-0.3c0.7-0.3,1.4-0.7,2.1-1c0.2-0.1,0.4-0.2,0.6-0.2c0.5-0.2,1.1-0.5,1.6-0.7
			c0.3-0.1,0.5-0.2,0.8-0.3c0.5-0.2,0.9-0.4,1.4-0.5c0.3-0.1,0.6-0.2,0.8-0.3c0.5-0.2,1-0.3,1.5-0.5c0.2-0.1,0.5-0.2,0.7-0.2
			c0.7-0.2,1.4-0.5,2.1-0.7c0.1,0,0.1,0,0.2-0.1c0.7-0.2,1.4-0.4,2.1-0.6c0.2-0.1,0.5-0.1,0.7-0.2c0.5-0.1,1-0.2,1.5-0.4
			c0.3-0.1,0.5-0.1,0.8-0.2c0.5-0.1,0.9-0.2,1.4-0.3c0.3-0.1,0.5-0.1,0.8-0.2c0.5-0.1,1.1-0.2,1.6-0.3c0.2,0,0.4-0.1,0.5-0.1
			c0.7-0.1,1.4-0.2,2.1-0.3c0.2,0,0.4,0,0.5-0.1c0.5-0.1,1-0.1,1.5-0.2c0.2,0,0.5,0,0.7-0.1c0.4,0,0.9-0.1,1.3-0.1
			c0.2,0,0.5,0,0.7,0c0.4,0,0.9,0,1.3,0c0.2,0,0.4,0,0.6,0c0.1,0,0.1,0,0.2,0c0.5,0,1.1,0,1.6,0c0.1,0,0.2,0,0.3,0
			c0.5,0,0.9,0,1.4,0.1c0.2,0,0.3,0,0.5,0c0.5,0,0.9,0.1,1.4,0.1c0.1,0,0.2,0,0.3,0c0.5,0.1,1,0.2,1.5,0.3c0.1,0,0.3,0.1,0.4,0.1
			c0.4,0.1,0.8,0.2,1.1,0.3c0.1,0,0.3,0.1,0.4,0.1c0.5,0.1,0.9,0.3,1.3,0.4c0,0,0,0,0,0l7.8-14.4c-2.4-1.9-4.9-3.9-7.4-5.8
			C479.8,165.1,479,164.3,478.1,163.6z"/>
	</g>
</g>
</svg>
