<?xml version="1.0" encoding="UTF-8" standalone="no"?>
<!-- Generator: Adobe Illustrator 22.1.0, SVG Export Plug-In . SVG Version: 6.00 Build 0)  -->

<svg
   xmlns:dc="http://purl.org/dc/elements/1.1/"
   xmlns:cc="http://creativecommons.org/ns#"
   xmlns:rdf="http://www.w3.org/1999/02/22-rdf-syntax-ns#"
   xmlns:svg="http://www.w3.org/2000/svg"
   xmlns="http://www.w3.org/2000/svg"
   xmlns:sodipodi="http://sodipodi.sourceforge.net/DTD/sodipodi-0.dtd"
   xmlns:inkscape="http://www.inkscape.org/namespaces/inkscape"
   version="1.1"
   id="Calque_1"
   x="0px"
   y="0px"
   viewBox="0 0 500 500"
   style="enable-background:new 0 0 500 500;"
   xml:space="preserve"
   sodipodi:docname="picto_parametre.svg"
   inkscape:version="0.92.3 (2405546, 2018-03-11)"><metadata
   id="metadata13"><rdf:RDF><cc:Work
       rdf:about=""><dc:format>image/svg+xml</dc:format><dc:type
         rdf:resource="http://purl.org/dc/dcmitype/StillImage" /></cc:Work></rdf:RDF></metadata><defs
   id="defs11" /><sodipodi:namedview
   pagecolor="#ffffff"
   bordercolor="#666666"
   borderopacity="1"
   objecttolerance="10"
   gridtolerance="10"
   guidetolerance="10"
   inkscape:pageopacity="0"
   inkscape:pageshadow="2"
   inkscape:window-width="1920"
   inkscape:window-height="1017"
   id="namedview9"
   showgrid="false"
   inkscape:zoom="0.472"
   inkscape:cx="250"
   inkscape:cy="250"
   inkscape:window-x="-8"
   inkscape:window-y="-8"
   inkscape:window-maximized="1"
   inkscape:current-layer="Calque_1" />
<style
   type="text/css"
   id="style2">
	.st0{opacity:0.8;fill:#373F44;}
	.st1{fill:#373F44;}
	.st2{opacity:0.15;fill:url(#SVGID_1_);}
	.st3{opacity:0.2;fill:url(#SVGID_2_);}
	.st4{fill:#C3006B;}
	.st5{fill:#ABCC59;}
	.st6{opacity:0.5;fill:url(#SVGID_3_);}
	.st7{fill:url(#SVGID_4_);}
	.st8{fill:url(#SVGID_5_);}
	.st9{fill:#333333;}
	.st10{fill:#FFFFFF;}
	.st11{fill:url(#SVGID_6_);}
	.st12{opacity:0.5;fill:url(#SVGID_7_);}
	.st13{fill:url(#SVGID_8_);}
	.st14{fill:url(#SVGID_9_);}
	.st15{fill:url(#SVGID_10_);}
	.st16{opacity:0.2;fill:url(#SVGID_11_);}
	.st17{fill:none;stroke:#FF00FF;}
	.st18{fill:url(#SVGID_12_);}
	.st19{fill:url(#SVGID_13_);}
	.st20{fill:url(#SVGID_14_);}
	.st21{fill:url(#SVGID_15_);}
</style>
<g
   id="g6"
   transform="translate(4.2372881,6.3559322)">
	<path
   d="m 437.3,218.8 h -18.7 c -8.6,0 -17.7,-6.7 -20.2,-14.9 l -10.7,-26.1 c -4,-7.5 -2.4,-18.7 3.6,-24.8 l 13.3,-13.3 c 6.1,-6.1 6.1,-16 0,-22.1 l -22.1,-22 c -6.1,-6.1 -16,-6.1 -22,0 L 347,108.8 c -6,6.1 -17.2,7.7 -24.7,3.7 L 296.2,101.7 C 288,99.2 281.3,90.1 281.3,81.5 V 62.8 c 0,-8.5 -7.1,-15.6 -15.6,-15.6 h -31.2 c -8.6,0 -15.6,7.1 -15.6,15.6 v 18.7 c 0,8.6 -6.7,17.7 -14.9,20.2 l -26.1,10.8 c -7.6,4 -18.7,2.4 -24.8,-3.7 L 139.8,95.6 c -6.1,-6.1 -16,-6.1 -22.1,0 l -22.1,22 c -6.1,6.1 -6.1,16 0,22.1 l 13.3,13.3 c 6.1,6 7.7,17.2 3.6,24.8 L 101.7,204 c -2.5,8.2 -11.6,14.9 -20.2,14.9 H 62.8 c -8.6,0 -15.6,7 -15.6,15.6 v 31.2 c 0,8.6 7,15.6 15.6,15.6 h 18.8 c 8.6,0 17.6,6.7 20.2,14.9 l 10.8,26.2 c 4.1,7.5 2.4,18.7 -3.6,24.8 l -13.3,13.3 c -6.1,6.1 -6.1,16 0,22.1 l 22.1,22.1 c 6.1,6 15.9,6 22.1,0 l 13.3,-13.3 c 6.1,-6 17.2,-7.7 24.7,-3.6 l 26.2,10.7 c 8.2,2.6 14.9,11.6 14.9,20.2 v 18.7 c 0,8.5 7,15.6 15.6,15.6 h 31.2 c 8.6,0 15.6,-7.1 15.6,-15.6 v -18.7 c 0,-8.6 6.7,-17.6 14.9,-20.2 l 26.1,-10.7 c 7.5,-4.1 18.7,-2.5 24.8,3.6 l 13.3,13.3 c 6.1,6 16,6 22,0 l 22.1,-22.1 c 6.1,-6.1 6.1,-16 0,-22.1 l -13.3,-13.3 c -6,-6.1 -7.7,-17.3 -3.6,-24.8 l 10.7,-26.2 c 2.5,-8.2 11.7,-14.9 20.2,-14.9 h 18.7 c 8.6,0 15.6,-7 15.6,-15.6 v -31.2 c -0.1,-8.7 -7,-15.7 -15.6,-15.7 M 328.1,250 c 0,43.1 -34.9,78 -78,78 -43.1,0 -78,-34.9 -78,-78 0,-43.1 34.9,-78 78,-78 43,0 78,34.9 78,78"
   id="path4"
   inkscape:connector-curvature="0" />
</g>
</svg>